<?xml version="1.0" encoding="utf-8"?>
<!-- Generator: Adobe Illustrator 21.0.2, SVG Export Plug-In . SVG Version: 6.00 Build 0)  -->
<svg version="1.1" id="Layer_1" xmlns="http://www.w3.org/2000/svg" xmlns:xlink="http://www.w3.org/1999/xlink" x="0px" y="0px"
	 viewBox="0 0 70 112.2" style="enable-background:new 0 0 70 112.2;" xml:space="preserve">
<path d="M62,2.2H44.2C44.2,1,43.2,0,42,0H28c-1.2,0-2.2,1-2.2,2.2H8c-4.4,0-8,3.6-8,8v94c0,4.4,3.6,8,8,8h54c4.4,0,8-3.6,8-8v-94
	C70,5.8,66.4,2.2,62,2.2z M65,101.2c0,3.3-2.7,6-6,6H11c-3.3,0-6-2.7-6-6v-88c0-3.3,2.7-6,6-6h48c3.3,0,6,2.7,6,6V101.2z"/>
</svg>
